<svg width="34" height="34" viewBox="0 0 34 34" fill="none" xmlns="http://www.w3.org/2000/svg">
<path d="M25.965 20.4047C28.1398 17.3268 29.0588 13.6558 28.5548 10.0666C28.341 8.54827 27.8303 7.08694 27.0518 5.76601C26.2732 4.44509 25.2421 3.29045 24.0174 2.36801C22.7926 1.44558 21.3981 0.77342 19.9136 0.389913C18.429 0.00640617 16.8835 -0.0809372 15.3652 0.13287C8.99019 1.02869 4.53167 6.94482 5.42749 13.3198C5.93019 16.8985 7.82609 20.1703 10.7646 22.533C12.3968 23.8399 14.2383 24.7576 15.9854 25.168C16.1175 25.1998 16.2325 25.2809 16.3066 25.3948C16.3807 25.5087 16.4083 25.6466 16.3839 25.7803L16.0605 27.5321C16.0135 27.7705 16.0481 28.0177 16.1587 28.234C16.2486 28.4065 16.384 28.551 16.5502 28.6518C16.7165 28.7526 16.9073 28.8059 17.1017 28.8058C17.1513 28.8059 17.2008 28.8023 17.2498 28.7951L18.4325 28.6291C18.4607 28.6252 18.4894 28.6304 18.5144 28.6441C18.5394 28.6577 18.5593 28.679 18.5713 28.7048C19.6816 31.116 21.5901 32.9449 24.0266 33.9084C24.1599 33.9611 24.3026 33.9863 24.4459 33.9823C24.5893 33.9784 24.7303 33.9456 24.8606 33.8857C24.9909 33.8258 25.1077 33.7402 25.2041 33.634C25.3004 33.5277 25.3742 33.4031 25.4211 33.2676C25.609 32.7244 25.3122 32.134 24.7783 31.9209C23.1113 31.2549 21.7219 30.0394 20.8404 28.4757C20.8292 28.4569 20.8229 28.4356 20.822 28.4137C20.8211 28.3918 20.8256 28.37 20.8351 28.3503C20.8446 28.3306 20.8589 28.3135 20.8766 28.3006C20.8943 28.2878 20.915 28.2795 20.9367 28.2765L21.4281 28.2101C21.6852 28.177 21.9223 28.0539 22.0975 27.8628C22.2391 27.7043 22.33 27.5069 22.3583 27.2961C22.3866 27.0854 22.351 26.871 22.2562 26.6808L21.4553 25.0717C21.3944 24.9495 21.383 24.8086 21.4233 24.6781C21.4636 24.5477 21.5526 24.4377 21.6718 24.3712C23.2383 23.4966 24.7564 22.1133 25.965 20.4047ZM15.6786 21.519C15.545 21.519 15.4125 21.4938 15.2882 21.4446C12.5482 20.3609 10.2214 17.945 9.21531 15.14C9.16628 15.0082 9.14389 14.8681 9.14944 14.7276C9.15498 14.5871 9.18836 14.4491 9.24763 14.3216C9.30689 14.1941 9.39088 14.0796 9.4947 13.9849C9.59853 13.8901 9.72014 13.8168 9.85249 13.7693C9.98483 13.7219 10.1253 13.7012 10.2657 13.7084C10.4061 13.7156 10.5437 13.7506 10.6705 13.8114C10.7972 13.8722 10.9107 13.9576 11.0042 14.0625C11.0978 14.1675 11.1696 14.2899 11.2155 14.4228C12.1784 17.1083 14.3545 18.7904 16.0698 19.4697C16.2998 19.5606 16.4909 19.729 16.6101 19.9457C16.7294 20.1624 16.7693 20.4139 16.7229 20.6569C16.6766 20.8999 16.5469 21.1191 16.3563 21.2767C16.1656 21.4343 15.926 21.5205 15.6786 21.5203V21.519Z" fill="#E76C6C"/>
</svg>
