<svg width="34" height="34" viewBox="0 0 34 34" fill="none" xmlns="http://www.w3.org/2000/svg">
<path d="M4.25 31.875H3.1875C2.62391 31.875 2.08341 31.6511 1.6849 31.2526C1.28638 30.8541 1.0625 30.3136 1.0625 29.75V7.4375C1.0625 6.87391 1.28638 6.33341 1.6849 5.9349C2.08341 5.53638 2.62391 5.3125 3.1875 5.3125H4.25C4.81359 5.3125 5.35409 5.53638 5.7526 5.9349C6.15112 6.33341 6.375 6.87391 6.375 7.4375V29.75C6.375 30.3136 6.15112 30.8541 5.7526 31.2526C5.35409 31.6511 4.81359 31.875 4.25 31.875ZM15.9375 11.6875C15.9375 11.1239 15.7136 10.5834 15.3151 10.1849C14.9166 9.78638 14.3761 9.5625 13.8125 9.5625H9.5625C8.99891 9.5625 8.45841 9.78638 8.0599 10.1849C7.66138 10.5834 7.4375 11.1239 7.4375 11.6875V13.5469C7.4375 13.6173 7.46549 13.6849 7.5153 13.7347C7.56511 13.7845 7.63268 13.8125 7.70312 13.8125H15.6719C15.7423 13.8125 15.8099 13.7845 15.8597 13.7347C15.9095 13.6849 15.9375 13.6173 15.9375 13.5469V11.6875ZM7.4375 29.75C7.4375 30.3136 7.66138 30.8541 8.0599 31.2526C8.45841 31.6511 8.99891 31.875 9.5625 31.875H13.8125C14.3761 31.875 14.9166 31.6511 15.3151 31.2526C15.7136 30.8541 15.9375 30.3136 15.9375 29.75V27.7578C15.9375 27.7226 15.9235 27.6888 15.8986 27.6639C15.8737 27.639 15.8399 27.625 15.8047 27.625H7.57031C7.53509 27.625 7.50131 27.639 7.4764 27.6639C7.45149 27.6888 7.4375 27.7226 7.4375 27.7578V29.75Z" fill="#F3CD6D"/>
<path d="M15.8047 15.9375H7.57031C7.49696 15.9375 7.4375 15.997 7.4375 16.0703V25.3672C7.4375 25.4405 7.49696 25.5 7.57031 25.5H15.8047C15.878 25.5 15.9375 25.4405 15.9375 25.3672V16.0703C15.9375 15.997 15.878 15.9375 15.8047 15.9375Z" fill="#F3CD6D"/>
<path d="M21.25 31.875H19.125C18.5614 31.875 18.0209 31.6511 17.6224 31.2526C17.2239 30.8541 17 30.3136 17 29.75V4.25C17 3.68641 17.2239 3.14591 17.6224 2.7474C18.0209 2.34888 18.5614 2.125 19.125 2.125H21.25C21.8136 2.125 22.3541 2.34888 22.7526 2.7474C23.1511 3.14591 23.375 3.68641 23.375 4.25V29.75C23.375 30.3136 23.1511 30.8541 22.7526 31.2526C22.3541 31.6511 21.8136 31.875 21.25 31.875ZM32.9302 29.5807L30.7899 7.00254C30.6916 5.96328 29.665 5.20957 28.4969 5.3218L26.3819 5.52102C25.2138 5.63191 24.3465 6.56426 24.4448 7.60352L26.5851 30.1816C26.6834 31.2209 27.71 31.9746 28.8781 31.8624L30.9931 31.6632C32.1612 31.5523 33.0285 30.6199 32.9302 29.5807Z" fill="#F3CD6D"/>
</svg>
