<svg width="34" height="34" viewBox="0 0 34 34" fill="none" xmlns="http://www.w3.org/2000/svg">
<path d="M6.43173 18.7214C6.3443 18.6571 6.2393 18.6212 6.13085 18.6184C6.0224 18.6157 5.9157 18.6462 5.82509 18.7058C5.73448 18.7655 5.66431 18.8514 5.624 18.9522C5.5837 19.0529 5.57519 19.1635 5.59963 19.2692C6.77839 24.4763 11.4423 28.3758 17.0007 28.3758C18.181 28.3762 19.3546 28.1971 20.4811 27.8446C20.5851 27.8125 20.6767 27.7493 20.7436 27.6635C20.8105 27.5777 20.8494 27.4735 20.8552 27.3648C20.8609 27.2562 20.8331 27.1484 20.7756 27.0561C20.7181 26.9637 20.6336 26.8912 20.5336 26.8484C18.0444 25.7513 15.6173 24.5185 13.2632 23.1555C10.9072 21.8026 8.62666 20.3224 6.43173 18.7214ZM32.7209 22.2337C32.4427 21.8631 32.1159 21.474 31.7447 21.0696C31.6234 20.9359 31.4697 20.8358 31.2985 20.7788C31.1273 20.7218 30.9442 20.7098 30.767 20.744C30.5898 20.7783 30.4244 20.8575 30.2867 20.9742C30.1491 21.0909 30.0437 21.241 29.9809 21.4102C29.9809 21.4209 29.9736 21.4308 29.9696 21.4414C29.9034 21.6213 29.8879 21.8159 29.9248 22.004C29.9617 22.1921 30.0496 22.3664 30.1788 22.508C31.6889 24.1682 31.9333 25.0654 31.8709 25.2546C31.7381 25.4027 30.7386 25.7122 28.0092 25.0202C27.6183 24.921 27.1906 24.8002 26.7262 24.6576C26.4269 24.5655 26.1217 24.4661 25.8104 24.3594C26.2993 23.7987 26.7338 23.1928 27.1081 22.5498C27.1194 22.5305 27.1313 22.5113 27.1426 22.4914C28.1564 20.7253 28.6894 18.7243 28.6886 16.6879C28.6889 16.2665 28.6667 15.8453 28.6222 15.4262C27.9866 9.57091 23.0173 5 17.0007 5C14.4478 4.99857 11.9652 5.83598 9.93479 7.38341C8.70416 8.32006 7.66998 9.48984 6.89128 10.826C6.88066 10.8453 6.8687 10.8645 6.85741 10.8838C6.48732 11.5286 6.17978 12.2073 5.93898 12.9106C5.6915 12.695 5.45265 12.4809 5.22243 12.2684C4.86449 11.9364 4.54706 11.6289 4.26482 11.3387C2.30112 9.32918 2.06736 8.30981 2.12912 8.12121C2.26194 7.97312 3.16111 7.73139 5.35791 8.2082C5.54572 8.2495 5.74127 8.23846 5.92324 8.17628C6.10521 8.1141 6.26663 8.00317 6.3899 7.85557L6.4138 7.82635C6.52838 7.68866 6.60565 7.52384 6.6382 7.34769C6.67075 7.17154 6.65749 6.98999 6.59969 6.82044C6.54188 6.6509 6.44148 6.49905 6.3081 6.37948C6.17473 6.2599 6.01287 6.1766 5.83804 6.13758C5.31663 6.01944 4.78955 5.9279 4.25884 5.86331C2.21877 5.62889 0.883293 6.03066 0.288936 7.05867C0.0737717 7.42923 -0.132759 8.06078 0.108304 8.95796C0.464919 10.2901 1.73598 11.9065 3.53499 13.5999C4.1081 14.1398 4.73433 14.687 5.4024 15.2362C5.88851 15.6347 6.39853 16.0371 6.92316 16.4369C7.27335 16.7025 7.63085 16.9682 7.99566 17.2338C8.36046 17.4994 8.73014 17.7602 9.10468 18.0161C10.7921 19.1855 12.5752 20.3085 14.3237 21.3159C14.9586 21.6816 15.5926 22.0358 16.2257 22.3785C16.8588 22.7211 17.4868 23.049 18.1097 23.362C19.564 24.0925 20.9885 24.7513 22.3505 25.3164C22.9345 25.559 23.5058 25.7839 24.0646 25.9911C24.8542 26.2846 25.6165 26.543 26.343 26.7608L26.4161 26.7827C28.1248 27.2914 29.5652 27.559 30.6981 27.5796H30.8137C32.2507 27.5796 33.2243 27.1559 33.7077 26.3178C34.3114 25.2805 33.9787 23.9059 32.7209 22.2337Z" fill="#5BC06E"/>
</svg>
