<svg width="34" height="34" viewBox="0 0 34 34" fill="none" xmlns="http://www.w3.org/2000/svg">
<path d="M21.8378 10.4119C21.4278 10.4121 21.0305 10.5545 20.7137 10.8148C20.3969 11.0751 20.1801 11.4372 20.1003 11.8394C20.0205 12.2416 20.0826 12.659 20.2761 13.0205C20.4696 13.382 20.7824 13.6653 21.1613 13.822C21.5402 13.9788 21.9617 13.9993 22.354 13.8801C22.7464 13.7609 23.0852 13.5093 23.3129 13.1683C23.5406 12.8273 23.6429 12.4179 23.6026 12.0098C23.5622 11.6018 23.3816 11.2203 23.0916 10.9305C22.9271 10.7657 22.7316 10.635 22.5165 10.546C22.3013 10.457 22.0707 10.4114 21.8378 10.4119Z" fill="#756AED"/>
<path d="M31.7049 3.32427C31.7046 3.32229 31.7046 3.32027 31.7049 3.31829C31.6487 3.07213 31.5249 2.84657 31.3474 2.66704C31.1698 2.48752 30.9457 2.36118 30.7001 2.30228C28.7212 1.8195 25.6081 2.33415 22.1583 3.7154C18.6813 5.10993 15.4234 7.16853 13.2214 9.37454C12.5155 10.0766 11.8598 10.8273 11.259 11.6211C9.77619 11.5547 8.46998 11.7658 7.36963 12.2459C3.53533 13.9333 2.4403 18.2517 2.14877 20.0248C2.10659 20.2767 2.12311 20.535 2.19704 20.7795C2.27097 21.024 2.40033 21.2481 2.57504 21.4345C2.74975 21.6208 2.9651 21.7643 3.20434 21.8538C3.44357 21.9433 3.70024 21.9764 3.95436 21.9506H3.96299L8.23424 21.4844C8.23955 21.5388 8.24553 21.5886 8.25018 21.6345C8.30504 22.1549 8.53715 22.6407 8.9076 23.0104L10.9921 25.0962C11.3612 25.4672 11.8469 25.6996 12.3674 25.7543L12.5101 25.7696L12.0453 30.0355V30.0442C12.0215 30.2739 12.046 30.5061 12.1171 30.7259C12.1882 30.9456 12.3043 31.1481 12.4581 31.3204C12.612 31.4928 12.8 31.6311 13.0103 31.7266C13.2207 31.822 13.4486 31.8726 13.6796 31.875C13.7719 31.875 13.8641 31.8675 13.9551 31.8524C15.7381 31.5655 20.0546 30.4838 21.7373 26.6289C22.2134 25.5358 22.4239 24.2349 22.3648 22.7547C23.1622 22.1553 23.9156 21.4995 24.6193 20.7924C26.8393 18.5838 28.9045 15.3524 30.2844 11.9259C31.6584 8.51525 32.1757 5.37888 31.7049 3.32427ZM24.5954 14.9374C24.0498 15.4836 23.3544 15.8557 22.5972 16.0066C21.8401 16.1575 21.0552 16.0805 20.3418 15.7852C19.6284 15.49 19.0187 14.9897 18.5897 14.3479C18.1606 13.706 17.9317 12.9513 17.9317 12.1792C17.9317 11.4072 18.1606 10.6524 18.5897 10.0106C19.0187 9.36868 19.6284 8.86847 20.3418 8.5732C21.0552 8.27793 21.8401 8.20089 22.5972 8.3518C23.3544 8.50272 24.0498 8.87482 24.5954 9.42103C24.9611 9.78126 25.2516 10.2106 25.4498 10.6841C25.648 11.1577 25.7501 11.6659 25.7501 12.1792C25.7501 12.6925 25.648 13.2008 25.4498 13.6743C25.2516 14.1478 24.9611 14.5772 24.5954 14.9374Z" fill="#756AED"/>
<path d="M10.753 25.662C10.4961 25.6301 10.2363 25.6931 10.0226 25.8393C9.59822 26.1295 9.17189 26.4164 8.74158 26.6959C7.87099 27.2617 6.82974 26.2683 7.34705 25.3678L8.15388 23.9733C8.26924 23.8045 8.33347 23.6061 8.33887 23.4018C8.34428 23.1974 8.29064 22.9959 8.18437 22.8213C8.07811 22.6467 7.92374 22.5064 7.73977 22.4174C7.5558 22.3283 7.35004 22.2942 7.14717 22.3191C6.25168 22.4323 5.4193 22.8402 4.78111 23.4785C4.53806 23.7223 3.79896 24.462 3.40119 27.281C3.28797 28.0907 3.2166 28.9057 3.18736 29.7227C3.18373 29.8645 3.20852 30.0056 3.26029 30.1377C3.31205 30.2698 3.38974 30.3901 3.48877 30.4917C3.58779 30.5932 3.70616 30.674 3.83687 30.729C3.96759 30.7841 4.10801 30.8125 4.24986 30.8124H4.27642C5.09411 30.7835 5.90976 30.7126 6.72017 30.5999C9.54045 30.2015 10.2802 29.4617 10.5233 29.2187C11.1645 28.5802 11.5714 27.744 11.6781 26.8453C11.7122 26.5658 11.6339 26.2841 11.4605 26.0622C11.287 25.8403 11.0326 25.6963 10.753 25.662Z" fill="#756AED"/>
</svg>
